<?xml version="1.0" standalone="no"?>
<!DOCTYPE svg PUBLIC "-//W3C//DTD SVG 20010904//EN"
 "http://www.w3.org/TR/2001/REC-SVG-20010904/DTD/svg10.dtd">
<svg version="1.0" xmlns="http://www.w3.org/2000/svg"
 width="300.000000pt" height="300.000000pt" viewBox="0 0 300.000000 300.000000"
 preserveAspectRatio="xMidYMid meet">
<metadata>
Created by potrace 1.10, written by Peter Selinger 2001-2011
</metadata>
<g transform="translate(0.000000,300.000000) scale(0.100000,-0.100000)"
fill="#000000" stroke="none">
<path d="M648 2649 c-9 -5 -44 -58 -78 -118 -52 -94 -60 -113 -50 -131 18 -33
969 -663 994 -658 12 3 238 149 504 326 397 266 482 326 482 345 0 27 -114
233 -134 240 -15 6 -112 -51 -584 -341 -145 -89 -268 -162 -273 -162 -6 0 -81
43 -167 97 -236 145 -636 389 -658 401 -12 6 -26 7 -36 1z m319 -207 c170
-104 361 -221 425 -261 l117 -72 198 122 c109 67 290 179 403 247 113 69 215
131 227 139 21 14 23 11 82 -94 33 -59 57 -111 53 -114 -30 -27 -950 -633
-962 -633 -13 -1 -970 628 -970 637 0 1 25 48 55 102 30 55 55 103 55 107 0 5
2 8 5 8 2 0 143 -85 312 -188z"/>
<path d="M2429 1560 c-167 -116 -310 -219 -317 -229 -11 -16 -6 -34 39 -132
52 -115 73 -149 93 -149 5 0 87 58 181 129 93 70 230 170 303 221 83 59 135
102 138 115 6 25 -81 209 -113 238 -19 16 -29 10 -324 -193z m364 72 l56 -109
-127 -88 c-70 -49 -207 -150 -305 -223 -98 -74 -179 -133 -180 -131 -2 2 -27
56 -56 119 -49 109 -51 116 -34 128 16 12 586 410 589 411 1 1 27 -48 57 -107z"/>
<path d="M258 1743 c-28 -32 -109 -204 -106 -226 2 -14 64 -64 193 -157 105
-74 241 -175 304 -223 63 -48 121 -87 130 -85 20 4 129 222 130 260 1 23 -11
35 -76 79 -43 29 -180 124 -305 211 -125 87 -233 158 -241 158 -8 0 -21 -8
-29 -17z m611 -413 l22 -15 -56 -118 c-38 -82 -59 -116 -68 -111 -6 4 -68 51
-137 104 -69 53 -200 149 -292 214 l-167 118 54 109 55 108 283 -197 c156
-108 293 -204 306 -212z"/>
<path d="M1006 1254 c-28 -27 -127 -234 -124 -257 2 -11 49 -61 106 -111 57
-50 140 -131 184 -181 81 -90 263 -288 305 -332 12 -13 27 -23 32 -23 5 0 110
108 232 240 122 132 260 273 308 313 52 44 87 82 89 95 2 13 -21 68 -53 130
-56 105 -81 142 -95 142 -4 0 -81 -53 -171 -118 -176 -126 -292 -202 -310
-202 -16 0 -186 111 -332 218 -70 51 -134 95 -141 98 -7 3 -21 -2 -30 -12z
m82 -57 c89 -68 280 -200 355 -246 l67 -41 43 26 c76 48 220 146 330 227 59
44 109 78 111 76 1 -2 30 -57 64 -121 l62 -116 -80 -67 c-85 -71 -186 -176
-395 -408 -71 -80 -133 -145 -136 -144 -3 1 -103 108 -221 238 -169 184 -326
337 -386 375 -5 3 117 244 124 244 3 0 31 -19 62 -43z"/>
</g>
</svg>
